<svg xmlns="http://www.w3.org/2000/svg" version="1.1" xmlns:xlink="http://www.w3.org/1999/xlink" xmlns:svgjs="http://svgjs.dev/svgjs" width="1500" height="1500" viewBox="0 0 1500 1500"><rect width="1500" height="1500" fill="#000000"></rect><g transform="matrix(0.6666666666666666,0,0,0.6666666666666666,249.39393939393938,438.5856950067477)"><svg viewBox="0 0 396 247" data-background-color="#ffffff" preserveAspectRatio="xMidYMid meet" height="935" width="1500" xmlns="http://www.w3.org/2000/svg" xmlns:xlink="http://www.w3.org/1999/xlink"><g id="tight-bounds" transform="matrix(1,0,0,1,0.2400000000000091,-0.09999999999999432)"><svg viewBox="0 0 395.52 247.2" height="247.2" width="395.52"><g><svg></svg></g><g><svg viewBox="0 0 395.52 247.2" height="247.2" width="395.52"><g><path d="M55.039 247.2l38.315-66.363h1.35l-37.602 65.129h281.316l-37.602-65.129 1.35 0 38.315 66.363zM197.76 0l38.315 66.363h-1.351l-36.964-64.024-36.964 64.024h-1.351z" fill="#ffffff" fill-rule="nonzero" stroke="none" stroke-width="1" stroke-linecap="butt" stroke-linejoin="miter" stroke-miterlimit="10" stroke-dasharray="" stroke-dashoffset="0" font-family="none" font-weight="none" font-size="none" text-anchor="none" style="mix-blend-mode: normal" data-fill-palette-color="tertiary"></path></g><g transform="matrix(1,0,0,1,0,82.71628202635904)"><svg viewBox="0 0 395.52 81.76743594728191" height="81.76743594728191" width="395.52"><g><svg viewBox="0 0 395.52 81.76743594728191" height="81.76743594728191" width="395.52"><g transform="matrix(1,0,0,1,0,46.981572329145806)"><svg viewBox="0 0 395.52 34.785863618136105" height="34.785863618136105" width="395.52"><g id="textblocktransform"><svg viewBox="0 0 395.52 34.785863618136105" height="34.785863618136105" width="395.52" id="textblock"><g><svg viewBox="0 0 395.52 19.80885999133073" height="19.80885999133073" width="395.52"><g transform="matrix(1,0,0,1,0,0)"><svg width="395.52" viewBox="3.16 -38.44 983.01 49.239999999999995" height="19.80885999133073" data-palette-color="#000000"><path d="M27.73 0L3.16 0 3.16-36.36 27.66-36.36 27.66-30.02 10.85-30.02 10.85-21.36 26.4-21.36 26.4-15.02 10.85-15.02 10.85-6.34 27.73-6.34 27.73 0ZM41.21-15.77L41.21-15.77 41.21 0 33.64 0 33.64-27.27 40.85-27.27 40.85-22.46 41.17-22.46Q42.08-24.84 44.21-26.23 46.34-27.63 49.38-27.63L49.38-27.63Q52.22-27.63 54.33-26.38 56.44-25.14 57.61-22.84 58.79-20.54 58.79-17.37L58.79-17.37 58.79 0 51.22 0 51.22-16.02Q51.24-18.52 49.94-19.93 48.65-21.34 46.38-21.34L46.38-21.34Q44.85-21.34 43.69-20.69 42.52-20.03 41.87-18.78 41.23-17.52 41.21-15.77ZM77.02 10.8L77.02 10.8Q73.34 10.8 70.72 9.79 68.11 8.79 66.56 7.07 65.02 5.34 64.55 3.2L64.55 3.2 71.55 2.25Q71.87 3.07 72.56 3.78 73.25 4.49 74.4 4.93 75.55 5.36 77.2 5.36L77.2 5.36Q79.66 5.36 81.27 4.16 82.88 2.97 82.88 0.16L82.88 0.16 82.88-4.83 82.56-4.83Q82.06-3.69 81.07-2.68 80.07-1.67 78.51-1.03 76.95-0.39 74.78-0.39L74.78-0.39Q71.71-0.39 69.2-1.82 66.69-3.25 65.2-6.21 63.72-9.16 63.72-13.69L63.72-13.69Q63.72-18.32 65.23-21.43 66.74-24.54 69.25-26.08 71.76-27.63 74.76-27.63L74.76-27.63Q77.05-27.63 78.6-26.86 80.14-26.08 81.09-24.94 82.04-23.79 82.56-22.69L82.56-22.69 82.84-22.69 82.84-27.27 90.35-27.27 90.35 0.27Q90.35 3.75 88.65 6.09 86.94 8.43 83.93 9.61 80.93 10.8 77.02 10.8ZM77.18-6.07L77.18-6.07Q79.01-6.07 80.28-6.99 81.55-7.9 82.23-9.61 82.91-11.33 82.91-13.73L82.91-13.73Q82.91-16.12 82.24-17.89 81.56-19.66 80.29-20.63 79.01-21.61 77.18-21.61L77.18-21.61Q75.31-21.61 74.04-20.61 72.76-19.6 72.1-17.83 71.44-16.05 71.44-13.73L71.44-13.73Q71.44-11.36 72.11-9.65 72.78-7.94 74.05-7 75.31-6.07 77.18-6.07ZM103.95 0L96.39 0 96.39-27.27 103.72-27.27 103.72-22.51 104.01-22.51Q104.75-25.05 106.51-26.36 108.27-27.66 110.56-27.66L110.56-27.66Q111.13-27.66 111.78-27.59 112.44-27.52 112.94-27.4L112.94-27.4 112.94-20.69Q112.4-20.85 111.46-20.97 110.52-21.09 109.74-21.09L109.74-21.09Q108.07-21.09 106.77-20.37 105.46-19.66 104.71-18.38 103.95-17.1 103.95-15.43L103.95-15.43 103.95 0ZM121.24 0.46L121.24 0.46Q119.49 0.46 118.23-0.79 116.98-2.04 116.98-3.8L116.98-3.8Q116.98-5.54 118.23-6.78 119.49-8.03 121.24-8.03L121.24-8.03Q122.95-8.03 124.23-6.78 125.5-5.54 125.5-3.8L125.5-3.8Q125.5-2.63 124.91-1.66 124.32-0.69 123.36-0.12 122.4 0.46 121.24 0.46ZM151.12 0L143.43 0 143.43-36.36 151.12-36.36 151.12-20.33 151.6-20.33 164.69-36.36 173.9-36.36 160.41-20.08 174.06 0 164.86 0 154.9-14.95 151.12-10.33 151.12 0ZM185.33-15.77L185.33-15.77 185.33 0 177.77 0 177.77-36.36 185.12-36.36 185.12-22.46 185.44-22.46Q186.36-24.88 188.42-26.25 190.48-27.63 193.59-27.63L193.59-27.63Q196.43-27.63 198.55-26.39 200.67-25.16 201.86-22.86 203.04-20.56 203.02-17.37L203.02-17.37 203.02 0 195.45 0 195.45-16.02Q195.47-18.54 194.19-19.94 192.9-21.34 190.59-21.34L190.59-21.34Q189.05-21.34 187.86-20.69 186.68-20.03 186.02-18.78 185.35-17.52 185.33-15.77ZM221.41 0.53L221.41 0.53Q217.2 0.53 214.18-1.18 211.15-2.89 209.51-6.05 207.88-9.2 207.88-13.51L207.88-13.51Q207.88-17.72 209.51-20.9 211.15-24.08 214.12-25.85 217.1-27.63 221.11-27.63L221.11-27.63Q223.81-27.63 226.14-26.77 228.48-25.91 230.23-24.18 231.98-22.46 232.95-19.86 233.93-17.26 233.93-13.78L233.93-13.78 233.93-11.7 210.9-11.7 210.9-16.39 226.81-16.39Q226.81-18.02 226.1-19.28 225.39-20.54 224.14-21.26 222.88-21.98 221.23-21.98L221.23-21.98Q219.51-21.98 218.19-21.19 216.87-20.4 216.12-19.08 215.37-17.76 215.36-16.14L215.36-16.14 215.36-11.68Q215.36-9.66 216.11-8.19 216.87-6.71 218.25-5.91 219.64-5.11 221.54-5.11L221.54-5.11Q222.8-5.11 223.84-5.47 224.89-5.82 225.64-6.53 226.38-7.24 226.77-8.27L226.77-8.27 233.77-7.81Q233.24-5.29 231.59-3.42 229.95-1.54 227.37-0.51 224.78 0.53 221.41 0.53ZM246.43-15.77L246.43-15.77 246.43 0 238.86 0 238.86-27.27 246.07-27.27 246.07-22.46 246.39-22.46Q247.3-24.84 249.43-26.23 251.56-27.63 254.59-27.63L254.59-27.63Q257.43-27.63 259.55-26.38 261.66-25.14 262.83-22.84 264-20.54 264-17.37L264-17.37 264 0 256.44 0 256.44-16.02Q256.46-18.52 255.16-19.93 253.87-21.34 251.59-21.34L251.59-21.34Q250.07-21.34 248.9-20.69 247.74-20.03 247.09-18.78 246.44-17.52 246.43-15.77ZM309.13 0L281.29 0 281.29-4.56 299.44-30.02 281.26-30.02 281.26-36.36 309.1-36.36 309.1-31.8 290.93-6.34 309.13-6.34 309.13 0ZM327.31 0.53L327.31 0.53Q323.11 0.53 320.08-1.18 317.05-2.89 315.42-6.05 313.78-9.2 313.78-13.51L313.78-13.51Q313.78-17.72 315.42-20.9 317.05-24.08 320.03-25.85 323-27.63 327.01-27.63L327.01-27.63Q329.71-27.63 332.05-26.77 334.38-25.91 336.13-24.18 337.88-22.46 338.85-19.86 339.83-17.26 339.83-13.78L339.83-13.78 339.83-11.7 316.8-11.7 316.8-16.39 332.71-16.39Q332.71-18.02 332-19.28 331.29-20.54 330.04-21.26 328.79-21.98 327.14-21.98L327.14-21.98Q325.41-21.98 324.09-21.19 322.77-20.4 322.02-19.08 321.28-17.76 321.26-16.14L321.26-16.14 321.26-11.68Q321.26-9.66 322.01-8.19 322.77-6.71 324.15-5.91 325.54-5.11 327.44-5.11L327.44-5.11Q328.7-5.11 329.75-5.47 330.79-5.82 331.54-6.53 332.29-7.24 332.68-8.27L332.68-8.27 339.67-7.81Q339.14-5.29 337.5-3.42 335.85-1.54 333.27-0.51 330.69 0.53 327.31 0.53ZM352.33 0L344.77 0 344.77-27.27 352.33-27.27 352.33 0ZM348.56-30.79L348.56-30.79Q346.88-30.79 345.68-31.92 344.48-33.04 344.48-34.62L344.48-34.62Q344.48-36.19 345.68-37.31 346.88-38.44 348.56-38.44L348.56-38.44Q350.25-38.44 351.45-37.31 352.65-36.19 352.65-34.62L352.65-34.62Q352.65-33.04 351.45-31.92 350.25-30.79 348.56-30.79ZM365.93 0L358.36 0 358.36-27.27 365.57-27.27 365.57-22.46 365.89-22.46Q366.74-24.86 368.73-26.24 370.72-27.63 373.49-27.63L373.49-27.63Q376.3-27.63 378.27-26.23 380.24-24.84 380.9-22.46L380.9-22.46 381.18-22.46Q382.01-24.8 384.21-26.22 386.4-27.63 389.4-27.63L389.4-27.63Q393.22-27.63 395.61-25.2 397.99-22.78 397.99-18.34L397.99-18.34 397.99 0 390.45 0 390.45-16.85Q390.45-19.12 389.24-20.26 388.03-21.4 386.22-21.4L386.22-21.4Q384.16-21.4 383.01-20.09 381.85-18.79 381.85-16.65L381.85-16.65 381.85 0 374.52 0 374.52-17.01Q374.52-19.02 373.38-20.21 372.23-21.4 370.37-21.4L370.37-21.4Q369.11-21.4 368.1-20.77 367.1-20.13 366.51-19.01 365.93-17.88 365.93-16.37L365.93-16.37 365.93 0ZM411.52 0L403.96 0 403.96-27.27 411.17-27.27 411.17-22.46 411.49-22.46Q412.34-24.86 414.33-26.24 416.32-27.63 419.09-27.63L419.09-27.63Q421.89-27.63 423.86-26.23 425.83-24.84 426.49-22.46L426.49-22.46 426.77-22.46Q427.61-24.8 429.8-26.22 431.99-27.63 434.99-27.63L434.99-27.63Q438.81-27.63 441.2-25.2 443.59-22.78 443.59-18.34L443.59-18.34 443.59 0 436.04 0 436.04-16.85Q436.04-19.12 434.83-20.26 433.63-21.4 431.82-21.4L431.82-21.4Q429.76-21.4 428.6-20.09 427.45-18.79 427.45-16.65L427.45-16.65 427.45 0 420.12 0 420.12-17.01Q420.12-19.02 418.97-20.21 417.82-21.4 415.96-21.4L415.96-21.4Q414.7-21.4 413.7-20.77 412.69-20.13 412.11-19.01 411.52-17.88 411.52-16.37L411.52-16.37 411.52 0ZM461.98 0.53L461.98 0.53Q457.77 0.53 454.75-1.18 451.72-2.89 450.08-6.05 448.45-9.2 448.45-13.51L448.45-13.51Q448.45-17.72 450.08-20.9 451.72-24.08 454.69-25.85 457.67-27.63 461.68-27.63L461.68-27.63Q464.38-27.63 466.71-26.77 469.05-25.91 470.8-24.18 472.55-22.46 473.52-19.86 474.5-17.26 474.5-13.78L474.5-13.78 474.5-11.7 451.47-11.7 451.47-16.39 467.38-16.39Q467.38-18.02 466.67-19.28 465.96-20.54 464.71-21.26 463.45-21.98 461.8-21.98L461.8-21.98Q460.08-21.98 458.76-21.19 457.44-20.4 456.69-19.08 455.94-17.76 455.93-16.14L455.93-16.14 455.93-11.68Q455.93-9.66 456.68-8.19 457.44-6.71 458.82-5.91 460.21-5.11 462.1-5.11L462.1-5.11Q463.37-5.11 464.41-5.47 465.46-5.82 466.21-6.53 466.95-7.24 467.34-8.27L467.34-8.27 474.34-7.81Q473.81-5.29 472.16-3.42 470.52-1.54 467.94-0.51 465.35 0.53 461.98 0.53ZM487 0L479.43 0 479.43-27.27 486.77-27.27 486.77-22.51 487.05-22.51Q487.79-25.05 489.55-26.36 491.31-27.66 493.6-27.66L493.6-27.66Q494.17-27.66 494.83-27.59 495.48-27.52 495.98-27.4L495.98-27.4 495.98-20.69Q495.45-20.85 494.51-20.97 493.57-21.09 492.78-21.09L492.78-21.09Q491.12-21.09 489.81-20.37 488.51-19.66 487.75-18.38 487-17.1 487-15.43L487-15.43 487 0ZM511.6 0L511.6-36.36 521.08-36.36 531.1-11.93 531.52-11.93 541.54-36.36 551.02-36.36 551.02 0 543.56 0 543.56-23.67 543.26-23.67 533.85-0.18 528.77-0.18 519.36-23.76 519.06-23.76 519.06 0 511.6 0ZM564.97 0.51L564.97 0.51Q562.36 0.51 560.32-0.4 558.28-1.31 557.1-3.12 555.92-4.92 555.92-7.62L555.92-7.62Q555.92-9.89 556.75-11.43 557.58-12.98 559.02-13.92 560.46-14.86 562.3-15.34 564.14-15.82 566.16-16.02L566.16-16.02Q568.54-16.26 570-16.49 571.45-16.71 572.11-17.15 572.77-17.6 572.77-18.47L572.77-18.47 572.77-18.57Q572.77-20.26 571.71-21.18 570.65-22.11 568.72-22.11L568.72-22.11Q566.68-22.11 565.47-21.21 564.26-20.31 563.87-18.96L563.87-18.96 556.87-19.53Q557.41-22.02 558.97-23.84 560.53-25.66 563.01-26.64 565.49-27.63 568.75-27.63L568.75-27.63Q571.03-27.63 573.11-27.1 575.2-26.56 576.82-25.44 578.45-24.33 579.39-22.58 580.33-20.83 580.33-18.39L580.33-18.39 580.33 0 573.16 0 573.16-3.78 572.94-3.78Q572.29-2.5 571.19-1.54 570.08-0.57 568.54-0.03 567 0.51 564.97 0.51ZM567.14-4.71L567.14-4.71Q568.81-4.71 570.08-5.37 571.36-6.04 572.09-7.17 572.82-8.31 572.82-9.75L572.82-9.75 572.82-12.64Q572.46-12.41 571.85-12.22 571.24-12.04 570.48-11.89 569.71-11.74 568.95-11.62 568.19-11.51 567.56-11.42L567.56-11.42Q566.23-11.22 565.24-10.8 564.24-10.37 563.69-9.65 563.14-8.93 563.14-7.87L563.14-7.87Q563.14-6.32 564.27-5.51 565.4-4.71 567.14-4.71ZM593.77 0L586.2 0 586.2-27.27 593.54-27.27 593.54-22.51 593.82-22.51Q594.57-25.05 596.33-26.36 598.08-27.66 600.37-27.66L600.37-27.66Q600.94-27.66 601.6-27.59 602.26-27.52 602.75-27.4L602.75-27.4 602.75-20.69Q602.22-20.85 601.28-20.97 600.34-21.09 599.56-21.09L599.56-21.09Q597.89-21.09 596.58-20.37 595.28-19.66 594.52-18.38 593.77-17.1 593.77-15.43L593.77-15.43 593.77 0ZM614.42 0.51L614.42 0.51Q611.81 0.51 609.76-0.4 607.72-1.31 606.54-3.12 605.36-4.92 605.36-7.62L605.36-7.62Q605.36-9.89 606.19-11.43 607.03-12.98 608.47-13.92 609.91-14.86 611.74-15.34 613.58-15.82 615.61-16.02L615.61-16.02Q617.98-16.26 619.44-16.49 620.9-16.71 621.55-17.15 622.21-17.6 622.21-18.47L622.21-18.47 622.21-18.57Q622.21-20.26 621.15-21.18 620.1-22.11 618.16-22.11L618.16-22.11Q616.12-22.11 614.91-21.21 613.71-20.31 613.32-18.96L613.32-18.96 606.32-19.53Q606.85-22.02 608.41-23.84 609.98-25.66 612.45-26.64 614.93-27.63 618.2-27.63L618.2-27.63Q620.47-27.63 622.56-27.1 624.64-26.56 626.27-25.44 627.89-24.33 628.83-22.58 629.77-20.83 629.77-18.39L629.77-18.39 629.77 0 622.6 0 622.6-3.78 622.39-3.78Q621.73-2.5 620.63-1.54 619.53-0.57 617.98-0.03 616.44 0.51 614.42 0.51ZM616.58-4.71L616.58-4.71Q618.25-4.71 619.53-5.37 620.81-6.04 621.54-7.17 622.26-8.31 622.26-9.75L622.26-9.75 622.26-12.64Q621.91-12.41 621.3-12.22 620.68-12.04 619.92-11.89 619.16-11.74 618.39-11.62 617.63-11.51 617.01-11.42L617.01-11.42Q615.68-11.22 614.68-10.8 613.69-10.37 613.14-9.65 612.59-8.93 612.59-7.87L612.59-7.87Q612.59-6.32 613.71-5.51 614.84-4.71 616.58-4.71ZM643.21-15.77L643.21-15.77 643.21 0 635.65 0 635.65-27.27 642.86-27.27 642.86-22.46 643.18-22.46Q644.08-24.84 646.21-26.23 648.34-27.63 651.38-27.63L651.38-27.63Q654.22-27.63 656.33-26.38 658.45-25.14 659.62-22.84 660.79-20.54 660.79-17.37L660.79-17.37 660.79 0 653.23 0 653.23-16.02Q653.25-18.52 651.95-19.93 650.65-21.34 648.38-21.34L648.38-21.34Q646.85-21.34 645.69-20.69 644.53-20.03 643.88-18.78 643.23-17.52 643.21-15.77ZM674.51 0.51L674.51 0.51Q671.9 0.51 669.86-0.4 667.82-1.31 666.64-3.12 665.46-4.92 665.46-7.62L665.46-7.62Q665.46-9.89 666.29-11.43 667.13-12.98 668.57-13.92 670-14.86 671.84-15.34 673.68-15.82 675.7-16.02L675.7-16.02Q678.08-16.26 679.54-16.49 680.99-16.71 681.65-17.15 682.31-17.6 682.31-18.47L682.31-18.47 682.31-18.57Q682.31-20.26 681.25-21.18 680.2-22.11 678.26-22.11L678.26-22.11Q676.22-22.11 675.01-21.21 673.8-20.31 673.41-18.96L673.41-18.96 666.42-19.53Q666.95-22.02 668.51-23.84 670.07-25.66 672.55-26.64 675.03-27.63 678.3-27.63L678.3-27.63Q680.57-27.63 682.65-27.1 684.74-26.56 686.37-25.44 687.99-24.33 688.93-22.58 689.87-20.83 689.87-18.39L689.87-18.39 689.87 0 682.7 0 682.7-3.78 682.49-3.78Q681.83-2.5 680.73-1.54 679.63-0.57 678.08-0.03 676.54 0.51 674.51 0.51ZM676.68-4.71L676.68-4.71Q678.35-4.71 679.63-5.37 680.91-6.04 681.63-7.17 682.36-8.31 682.36-9.75L682.36-9.75 682.36-12.64Q682.01-12.41 681.39-12.22 680.78-12.04 680.02-11.89 679.25-11.74 678.49-11.62 677.73-11.51 677.11-11.42L677.11-11.42Q675.77-11.22 674.78-10.8 673.79-10.37 673.24-9.65 672.69-8.93 672.69-7.87L672.69-7.87Q672.69-6.32 673.81-5.51 674.94-4.71 676.68-4.71ZM703.31-15.77L703.31-15.77 703.31 0 695.75 0 695.75-27.27 702.96-27.27 702.96-22.46 703.28-22.46Q704.18-24.84 706.31-26.23 708.44-27.63 711.48-27.63L711.48-27.63Q714.32-27.63 716.43-26.38 718.55-25.14 719.72-22.84 720.89-20.54 720.89-17.37L720.89-17.37 720.89 0 713.33 0 713.33-16.02Q713.34-18.52 712.05-19.93 710.75-21.34 708.48-21.34L708.48-21.34Q706.95-21.34 705.79-20.69 704.62-20.03 703.98-18.78 703.33-17.52 703.31-15.77ZM751.46 0L751.46 0 738.57 0 738.57-36.36 751.57-36.36Q757.05-36.36 761.01-34.19 764.97-32.01 767.11-27.95 769.25-23.88 769.25-18.22L769.25-18.22Q769.25-12.54 767.11-8.45 764.97-4.37 760.99-2.18 757 0 751.46 0ZM746.26-29.78L746.26-6.59 751.14-6.59Q754.55-6.59 756.88-7.8 759.22-9.02 760.4-11.59 761.58-14.15 761.58-18.22L761.58-18.22Q761.58-22.25 760.4-24.8 759.22-27.36 756.89-28.57 754.57-29.78 751.16-29.78L751.16-29.78 746.26-29.78ZM787.22 0.53L787.22 0.53Q783.01 0.53 779.98-1.18 776.95-2.89 775.32-6.05 773.69-9.2 773.69-13.51L773.69-13.51Q773.69-17.72 775.32-20.9 776.95-24.08 779.93-25.85 782.9-27.63 786.92-27.63L786.92-27.63Q789.61-27.63 791.95-26.77 794.28-25.91 796.03-24.18 797.78-22.46 798.76-19.86 799.73-17.26 799.73-13.78L799.73-13.78 799.73-11.7 776.71-11.7 776.71-16.39 792.61-16.39Q792.61-18.02 791.9-19.28 791.19-20.54 789.94-21.26 788.69-21.98 787.04-21.98L787.04-21.98Q785.32-21.98 783.99-21.19 782.67-20.4 781.93-19.08 781.18-17.76 781.16-16.14L781.16-16.14 781.16-11.68Q781.16-9.66 781.92-8.19 782.67-6.71 784.06-5.91 785.44-5.11 787.34-5.11L787.34-5.11Q788.6-5.11 789.65-5.47 790.7-5.82 791.44-6.53 792.19-7.24 792.58-8.27L792.58-8.27 799.57-7.81Q799.04-5.29 797.4-3.42 795.76-1.54 793.17-0.51 790.59 0.53 787.22 0.53ZM822.09-27.27L830.09-27.27 820.56 0 812.04 0 802.5-27.27 810.49-27.27 816.16-7.76 816.44-7.76 822.09-27.27ZM846.39 0.53L846.39 0.53Q842.18 0.53 839.16-1.18 836.13-2.89 834.5-6.05 832.86-9.2 832.86-13.51L832.86-13.51Q832.86-17.72 834.5-20.9 836.13-24.08 839.1-25.85 842.08-27.63 846.09-27.63L846.09-27.63Q848.79-27.63 851.12-26.77 853.46-25.91 855.21-24.18 856.96-22.46 857.93-19.86 858.91-17.26 858.91-13.78L858.91-13.78 858.91-11.7 835.88-11.7 835.88-16.39 851.79-16.39Q851.79-18.02 851.08-19.28 850.37-20.54 849.12-21.26 847.87-21.98 846.21-21.98L846.21-21.98Q844.49-21.98 843.17-21.19 841.85-20.4 841.1-19.08 840.35-17.76 840.34-16.14L840.34-16.14 840.34-11.68Q840.34-9.66 841.09-8.19 841.85-6.71 843.23-5.91 844.62-5.11 846.52-5.11L846.52-5.11Q847.78-5.11 848.82-5.47 849.87-5.82 850.62-6.53 851.36-7.24 851.75-8.27L851.75-8.27 858.75-7.81Q858.22-5.29 856.57-3.42 854.93-1.54 852.35-0.51 849.77 0.53 846.39 0.53ZM863.84-36.36L871.41-36.36 871.41 0 863.84 0 863.84-36.36ZM889.76 0.53L889.76 0.53Q885.63 0.53 882.62-1.23 879.61-3 877.97-6.17 876.34-9.34 876.34-13.53L876.34-13.53Q876.34-17.76 877.97-20.93 879.61-24.09 882.62-25.86 885.63-27.63 889.76-27.63L889.76-27.63Q893.9-27.63 896.91-25.86 899.92-24.09 901.55-20.93 903.19-17.76 903.19-13.53L903.19-13.53Q903.19-9.34 901.55-6.17 899.92-3 896.91-1.23 893.9 0.53 889.76 0.53ZM889.8-5.33L889.8-5.33Q891.68-5.33 892.94-6.4 894.2-7.48 894.85-9.34 895.5-11.2 895.5-13.58L895.5-13.58Q895.5-15.96 894.85-17.83 894.2-19.69 892.94-20.77 891.68-21.86 889.8-21.86L889.8-21.86Q887.9-21.86 886.61-20.77 885.32-19.69 884.68-17.83 884.03-15.96 884.03-13.58L884.03-13.58Q884.03-11.2 884.68-9.34 885.32-7.48 886.61-6.4 887.9-5.33 889.8-5.33ZM915.68 10.23L908.12 10.23 908.12-27.27 915.58-27.27 915.58-22.69 915.92-22.69Q916.41-23.79 917.36-24.94 918.31-26.08 919.85-26.86 921.38-27.63 923.67-27.63L923.67-27.63Q926.66-27.63 929.18-26.07 931.7-24.52 933.21-21.4 934.72-18.29 934.72-13.6L934.72-13.6Q934.72-9.04 933.25-5.9 931.79-2.77 929.28-1.16 926.76 0.44 923.66 0.44L923.66 0.44Q921.46 0.44 919.92-0.28 918.38-1.01 917.41-2.12 916.43-3.23 915.92-4.37L915.92-4.37 915.68-4.37 915.68 10.23ZM915.52-13.64L915.52-13.64Q915.52-11.2 916.2-9.39 916.87-7.58 918.15-6.58 919.43-5.58 921.26-5.58L921.26-5.58Q923.11-5.58 924.38-6.6 925.66-7.62 926.33-9.44 926.99-11.26 926.99-13.64L926.99-13.64Q926.99-16 926.34-17.79 925.68-19.58 924.4-20.6 923.12-21.61 921.26-21.61L921.26-21.61Q919.41-21.61 918.14-20.63 916.87-19.66 916.2-17.86 915.52-16.07 915.52-13.64ZM952.17 0.53L952.17 0.53Q947.96 0.53 944.93-1.18 941.91-2.89 940.27-6.05 938.64-9.2 938.64-13.51L938.64-13.51Q938.64-17.72 940.27-20.9 941.91-24.08 944.88-25.85 947.86-27.63 951.87-27.63L951.87-27.63Q954.57-27.63 956.9-26.77 959.24-25.91 960.99-24.18 962.73-22.46 963.71-19.86 964.69-17.26 964.69-13.78L964.69-13.78 964.69-11.7 941.66-11.7 941.66-16.39 957.57-16.39Q957.57-18.02 956.86-19.28 956.15-20.54 954.9-21.26 953.64-21.98 951.99-21.98L951.99-21.98Q950.27-21.98 948.95-21.19 947.62-20.4 946.88-19.08 946.13-17.76 946.12-16.14L946.12-16.14 946.12-11.68Q946.12-9.66 946.87-8.19 947.62-6.71 949.01-5.91 950.39-5.11 952.29-5.11L952.29-5.11Q953.55-5.11 954.6-5.47 955.65-5.82 956.4-6.53 957.14-7.24 957.53-8.27L957.53-8.27 964.53-7.81Q964-5.29 962.35-3.42 960.71-1.54 958.13-0.51 955.54 0.53 952.17 0.53ZM977.19 0L969.62 0 969.62-27.27 976.95-27.27 976.95-22.51 977.24-22.51Q977.98-25.05 979.74-26.36 981.5-27.66 983.79-27.66L983.79-27.66Q984.36-27.66 985.02-27.59 985.67-27.52 986.17-27.4L986.17-27.4 986.17-20.69Q985.64-20.85 984.7-20.97 983.75-21.09 982.97-21.09L982.97-21.09Q981.3-21.09 980-20.37 978.69-19.66 977.94-18.38 977.19-17.1 977.19-15.43L977.19-15.43 977.19 0Z" opacity="1" transform="matrix(1,0,0,1,0,0)" fill="#ffffff" class="wordmark-text-0" data-fill-palette-color="primary" id="text-0"></path></svg></g></svg></g><g transform="matrix(1,0,0,1,120.56209065882766,24.485256422644124)"><svg viewBox="0 0 154.39581868234467 10.300607195491981" height="10.300607195491981" width="154.39581868234467"><g transform="matrix(1,0,0,1,0,0)"><svg width="154.39581868234467" viewBox="5.35 -46.55 885.77 59.099999999999994" height="10.300607195491981" data-palette-color="#030303"><path d="M17.95-37.9Q27.3-37.9 32.08-33.08 36.85-28.25 36.85-18.9L36.85-18.9Q36.85-9.5 32.1-4.75 27.35 0 17.95 0L17.95 0 5.35 0 5.35-37.9 17.95-37.9ZM31.85-19.05Q31.85-26.55 28.35-30.1 24.85-33.65 17.95-33.65L17.95-33.65 10.2-33.65 10.2-4.25 17.95-4.25Q24.9-4.25 28.38-7.8 31.85-11.35 31.85-19.05L31.85-19.05ZM47.5-13.45Q47.6-8.85 49.8-6.1 52-3.35 56.8-3.35L56.8-3.35Q60.45-3.35 64.8-5.4L64.8-5.4 66.25-1.5Q61.7 0.85 56.4 0.85L56.4 0.85Q52 0.85 48.9-1 45.8-2.85 44.2-6.15 42.6-9.45 42.6-13.85L42.6-13.85Q42.6-18.5 44.27-21.78 45.95-25.05 48.8-26.75 51.65-28.45 55.2-28.45L55.2-28.45Q60.65-28.45 63.75-25.05 66.85-21.65 66.85-15.3L66.85-15.3 66.85-13.45 47.5-13.45ZM55.2-24.25Q49-24.25 47.8-17.4L47.8-17.4 61.9-17.4Q61.65-20.9 60-22.58 58.35-24.25 55.2-24.25L55.2-24.25ZM91.55-27.65L96.45-27.65 86 0.45 80.6 0.45 70.05-27.65 74.95-27.65 83.3-4.75 91.55-27.65ZM105.14-13.45Q105.24-8.85 107.44-6.1 109.64-3.35 114.44-3.35L114.44-3.35Q118.09-3.35 122.44-5.4L122.44-5.4 123.89-1.5Q119.34 0.85 114.04 0.85L114.04 0.85Q109.64 0.85 106.54-1 103.44-2.85 101.84-6.15 100.24-9.45 100.24-13.85L100.24-13.85Q100.24-18.5 101.92-21.78 103.59-25.05 106.44-26.75 109.29-28.45 112.84-28.45L112.84-28.45Q118.29-28.45 121.39-25.05 124.49-21.65 124.49-15.3L124.49-15.3 124.49-13.45 105.14-13.45ZM112.84-24.25Q106.64-24.25 105.44-17.4L105.44-17.4 119.54-17.4Q119.29-20.9 117.64-22.58 115.99-24.25 112.84-24.25L112.84-24.25ZM138.24 0.65Q134.49 0.65 132.84-0.85 131.19-2.35 131.19-5.9L131.19-5.9 131.19-42.3 135.89-42.3 135.89-7.15Q135.89-5.15 136.52-4.42 137.14-3.7 138.89-3.7L138.89-3.7Q140.29-3.7 141.39-4L141.39-4 141.39 0.3Q139.39 0.65 138.24 0.65L138.24 0.65ZM159.09 0.85Q154.69 0.85 151.61-1.07 148.54-3 146.99-6.33 145.44-9.65 145.44-13.8L145.44-13.8Q145.44-17.95 146.99-21.28 148.54-24.6 151.61-26.53 154.69-28.45 159.09-28.45L159.09-28.45Q163.49-28.45 166.56-26.53 169.64-24.6 171.16-21.28 172.69-17.95 172.69-13.8L172.69-13.8Q172.69-9.65 171.16-6.33 169.64-3 166.56-1.07 163.49 0.85 159.09 0.85L159.09 0.85ZM159.09-3.4Q163.24-3.4 165.51-6.3 167.79-9.2 167.79-13.8L167.79-13.8Q167.79-18.4 165.51-21.28 163.24-24.15 159.09-24.15L159.09-24.15Q154.94-24.15 152.64-21.28 150.34-18.4 150.34-13.8L150.34-13.8Q150.34-9.2 152.64-6.3 154.94-3.4 159.09-3.4L159.09-3.4ZM192.69-28.45Q198.29-28.45 201.61-24.7 204.94-20.95 204.94-13.8L204.94-13.8Q204.94-6.65 201.61-2.9 198.29 0.85 192.69 0.85L192.69 0.85Q188.64 0.85 184.69-2.5L184.69-2.5 184.69 11.7 179.99 11.7 179.99-27.65 184.69-27.65 184.69-25.05Q188.69-28.45 192.69-28.45L192.69-28.45ZM192.04-3.5Q195.99-3.5 198.04-6.13 200.09-8.75 200.09-13.8L200.09-13.8Q200.09-18.85 198.04-21.45 195.99-24.05 192.04-24.05L192.04-24.05Q188.29-24.05 184.69-20.95L184.69-20.95 184.69-6.6Q188.39-3.5 192.04-3.5L192.04-3.5ZM215.48-13.45Q215.58-8.85 217.78-6.1 219.98-3.35 224.78-3.35L224.78-3.35Q228.43-3.35 232.78-5.4L232.78-5.4 234.23-1.5Q229.68 0.85 224.38 0.85L224.38 0.85Q219.98 0.85 216.88-1 213.78-2.85 212.18-6.15 210.58-9.45 210.58-13.85L210.58-13.85Q210.58-18.5 212.26-21.78 213.93-25.05 216.78-26.75 219.63-28.45 223.18-28.45L223.18-28.45Q228.63-28.45 231.73-25.05 234.83-21.65 234.83-15.3L234.83-15.3 234.83-13.45 215.48-13.45ZM223.18-24.25Q216.98-24.25 215.78-17.4L215.78-17.4 229.88-17.4Q229.63-20.9 227.98-22.58 226.33-24.25 223.18-24.25L223.18-24.25ZM254.58-28.25L255.73-28.25 255.73-23.85 254.58-23.85Q250.28-23.85 246.23-20.4L246.23-20.4 246.23 0 241.53 0 241.53-27.65 246.23-27.65 246.23-24.55Q250.33-28.25 254.58-28.25L254.58-28.25ZM257.33 8.85L272.88-46.55 277.68-46.55 262.13 8.85 257.33 8.85ZM307.32-37.9Q319.72-37.9 319.72-26.6L319.72-26.6Q319.72-21.1 316.62-18.23 313.52-15.35 307.32-15.35L307.32-15.35 298.92-15.35 298.92 0 294.07 0 294.07-37.9 307.32-37.9ZM314.77-26.6Q314.77-30.3 312.92-31.98 311.07-33.65 307.32-33.65L307.32-33.65 298.92-33.65 298.92-19.65 307.32-19.65Q314.72-19.65 314.77-26.6L314.77-26.6ZM339.27-28.25L340.42-28.25 340.42-23.85 339.27-23.85Q334.97-23.85 330.92-20.4L330.92-20.4 330.92 0 326.22 0 326.22-27.65 330.92-27.65 330.92-24.55Q335.02-28.25 339.27-28.25L339.27-28.25ZM358.37 0.85Q353.97 0.85 350.89-1.07 347.82-3 346.27-6.33 344.72-9.65 344.72-13.8L344.72-13.8Q344.72-17.95 346.27-21.28 347.82-24.6 350.89-26.53 353.97-28.45 358.37-28.45L358.37-28.45Q362.77-28.45 365.84-26.53 368.92-24.6 370.44-21.28 371.97-17.95 371.97-13.8L371.97-13.8Q371.97-9.65 370.44-6.33 368.92-3 365.84-1.07 362.77 0.85 358.37 0.85L358.37 0.85ZM358.37-3.4Q362.52-3.4 364.79-6.3 367.07-9.2 367.07-13.8L367.07-13.8Q367.07-18.4 364.79-21.28 362.52-24.15 358.37-24.15L358.37-24.15Q354.22-24.15 351.92-21.28 349.62-18.4 349.62-13.8L349.62-13.8Q349.62-9.2 351.92-6.3 354.22-3.4 358.37-3.4L358.37-3.4ZM397.77-27.65L402.47-27.65 402.47 0.55Q402.47 6.2 399.84 9.38 397.22 12.55 390.67 12.55L390.67 12.55Q387.47 12.55 385.14 12.15 382.82 11.75 380.37 10.75L380.37 10.75 380.37 6.1Q382.67 7.15 384.97 7.68 387.27 8.2 389.22 8.2L389.22 8.2Q392.82 8.2 394.67 7.28 396.52 6.35 397.14 4.63 397.77 2.9 397.77 0.05L397.77 0.05 397.77-3.5Q393.82-0.15 389.77-0.15L389.77-0.15Q384.17-0.15 380.84-3.8 377.52-7.45 377.52-14.3L377.52-14.3Q377.52-21.2 380.87-24.83 384.22-28.45 389.77-28.45L389.77-28.45Q393.77-28.45 397.77-25.05L397.77-25.05 397.77-27.65ZM390.42-4.5Q394.07-4.5 397.77-7.6L397.77-7.6 397.77-20.95Q394.17-24.05 390.42-24.05L390.42-24.05Q386.52-24.05 384.44-21.48 382.37-18.9 382.37-14.3L382.37-14.3Q382.37-9.55 384.42-7.03 386.47-4.5 390.42-4.5L390.42-4.5ZM423.76-28.25L424.91-28.25 424.91-23.85 423.76-23.85Q419.46-23.85 415.41-20.4L415.41-20.4 415.41 0 410.71 0 410.71-27.65 415.41-27.65 415.41-24.55Q419.51-28.25 423.76-28.25L423.76-28.25ZM439.41-27.65Q443.81-27.65 446.11-26.18 448.41-24.7 449.16-22.23 449.91-19.75 449.91-16L449.91-16 449.91 0 445.21 0 445.21-2.75Q443.31-0.95 441.41-0.15 439.51 0.65 437.31 0.65L437.31 0.65Q434.71 0.65 432.61-0.48 430.51-1.6 429.29-3.73 428.06-5.85 428.06-8.75L428.06-8.75Q428.06-13.25 430.86-15.73 433.66-18.2 438.41-18.2L438.41-18.2Q442.16-18.2 445.16-16.55L445.16-16.55Q445.11-19 444.66-20.45 444.21-21.9 442.81-22.68 441.41-23.45 438.66-23.45L438.66-23.45 434.96-23.45 434.96-27.65 439.41-27.65ZM437.96-3.4Q439.66-3.4 441.54-4.2 443.41-5 445.21-6.6L445.21-6.6 445.21-12.9Q442.41-14.3 439.11-14.3L439.11-14.3Q436.46-14.3 434.66-13.03 432.86-11.75 432.86-8.75L432.86-8.75Q432.86-5.95 434.39-4.67 435.91-3.4 437.96-3.4L437.96-3.4ZM488.76-28.25Q493.81-28.25 496.23-25.55 498.66-22.85 498.66-16.65L498.66-16.65 498.66 0 493.96 0 493.96-16.65Q493.96-20.6 492.68-22.23 491.41-23.85 488.11-23.85L488.11-23.85Q484.21-23.85 480.31-20.1L480.31-20.1Q480.51-18.7 480.51-16.65L480.51-16.65 480.51 0 475.81 0 475.81-16.65Q475.81-20.6 474.53-22.23 473.26-23.85 469.96-23.85L469.96-23.85Q466.16-23.85 462.36-20.45L462.36-20.45 462.36 0 457.66 0 457.66-27.65 462.36-27.65 462.36-24.7Q466.41-28.25 470.61-28.25L470.61-28.25Q473.96-28.25 476.11-27.13 478.26-26 479.36-23.55L479.36-23.55Q483.91-28.25 488.76-28.25L488.76-28.25ZM537.65-28.25Q542.71-28.25 545.13-25.55 547.56-22.85 547.56-16.65L547.56-16.65 547.56 0 542.86 0 542.86-16.65Q542.86-20.6 541.58-22.23 540.31-23.85 537-23.85L537-23.85Q533.11-23.85 529.21-20.1L529.21-20.1Q529.4-18.7 529.4-16.65L529.4-16.65 529.4 0 524.71 0 524.71-16.65Q524.71-20.6 523.43-22.23 522.15-23.85 518.86-23.85L518.86-23.85Q515.06-23.85 511.25-20.45L511.25-20.45 511.25 0 506.56 0 506.56-27.65 511.25-27.65 511.25-24.7Q515.31-28.25 519.5-28.25L519.5-28.25Q522.86-28.25 525-27.13 527.15-26 528.25-23.55L528.25-23.55Q532.81-28.25 537.65-28.25L537.65-28.25ZM558.65-13.45Q558.75-8.85 560.95-6.1 563.15-3.35 567.95-3.35L567.95-3.35Q571.6-3.35 575.95-5.4L575.95-5.4 577.4-1.5Q572.85 0.85 567.55 0.85L567.55 0.85Q563.15 0.85 560.05-1 556.95-2.85 555.35-6.15 553.75-9.45 553.75-13.85L553.75-13.85Q553.75-18.5 555.43-21.78 557.1-25.05 559.95-26.75 562.8-28.45 566.35-28.45L566.35-28.45Q571.8-28.45 574.9-25.05 578-21.65 578-15.3L578-15.3 578-13.45 558.65-13.45ZM566.35-24.25Q560.15-24.25 558.95-17.4L558.95-17.4 573.05-17.4Q572.8-20.9 571.15-22.58 569.5-24.25 566.35-24.25L566.35-24.25ZM597.75-28.25L598.9-28.25 598.9-23.85 597.75-23.85Q593.45-23.85 589.4-20.4L589.4-20.4 589.4 0 584.7 0 584.7-27.65 589.4-27.65 589.4-24.55Q593.5-28.25 597.75-28.25L597.75-28.25ZM600.5 8.85L616.05-46.55 620.85-46.55 605.3 8.85 600.5 8.85ZM660.19-33.55L642.09-33.55 642.09-20.55 657.69-20.55 657.69-16.2 642.09-16.2 642.09 0 637.24 0 637.24-37.9 660.19-37.9 660.19-33.55ZM680.09-28.25L681.24-28.25 681.24-23.85 680.09-23.85Q675.79-23.85 671.74-20.4L671.74-20.4 671.74 0 667.04 0 667.04-27.65 671.74-27.65 671.74-24.55Q675.84-28.25 680.09-28.25L680.09-28.25ZM690.44-13.45Q690.54-8.85 692.74-6.1 694.94-3.35 699.74-3.35L699.74-3.35Q703.39-3.35 707.74-5.4L707.74-5.4 709.19-1.5Q704.64 0.85 699.34 0.85L699.34 0.85Q694.94 0.85 691.84-1 688.74-2.85 687.14-6.15 685.54-9.45 685.54-13.85L685.54-13.85Q685.54-18.5 687.21-21.78 688.89-25.05 691.74-26.75 694.59-28.45 698.14-28.45L698.14-28.45Q703.59-28.45 706.69-25.05 709.79-21.65 709.79-15.3L709.79-15.3 709.79-13.45 690.44-13.45ZM698.14-24.25Q691.94-24.25 690.74-17.4L690.74-17.4 704.84-17.4Q704.59-20.9 702.94-22.58 701.29-24.25 698.14-24.25L698.14-24.25ZM719.68-13.45Q719.78-8.85 721.98-6.1 724.18-3.35 728.98-3.35L728.98-3.35Q732.63-3.35 736.98-5.4L736.98-5.4 738.43-1.5Q733.88 0.85 728.58 0.85L728.58 0.85Q724.18 0.85 721.08-1 717.98-2.85 716.38-6.15 714.78-9.45 714.78-13.85L714.78-13.85Q714.78-18.5 716.46-21.78 718.13-25.05 720.98-26.75 723.83-28.45 727.38-28.45L727.38-28.45Q732.83-28.45 735.93-25.05 739.03-21.65 739.03-15.3L739.03-15.3 739.03-13.45 719.68-13.45ZM727.38-24.25Q721.18-24.25 719.98-17.4L719.98-17.4 734.08-17.4Q733.83-20.9 732.18-22.58 730.53-24.25 727.38-24.25L727.38-24.25ZM752.78 0.65Q749.03 0.65 747.38-0.85 745.73-2.35 745.73-5.9L745.73-5.9 745.73-42.3 750.43-42.3 750.43-7.15Q750.43-5.15 751.06-4.42 751.68-3.7 753.43-3.7L753.43-3.7Q754.83-3.7 755.93-4L755.93-4 755.93 0.3Q753.93 0.65 752.78 0.65L752.78 0.65ZM770.18-27.65Q774.58-27.65 776.88-26.18 779.18-24.7 779.93-22.23 780.68-19.75 780.68-16L780.68-16 780.68 0 775.98 0 775.98-2.75Q774.08-0.95 772.18-0.15 770.28 0.65 768.08 0.65L768.08 0.65Q765.48 0.65 763.38-0.48 761.28-1.6 760.05-3.73 758.83-5.85 758.83-8.75L758.83-8.75Q758.83-13.25 761.63-15.73 764.43-18.2 769.18-18.2L769.18-18.2Q772.93-18.2 775.93-16.55L775.93-16.55Q775.88-19 775.43-20.45 774.98-21.9 773.58-22.68 772.18-23.45 769.43-23.45L769.43-23.45 765.73-23.45 765.73-27.65 770.18-27.65ZM768.73-3.4Q770.43-3.4 772.3-4.2 774.18-5 775.98-6.6L775.98-6.6 775.98-12.9Q773.18-14.3 769.88-14.3L769.88-14.3Q767.23-14.3 765.43-13.03 763.63-11.75 763.63-8.75L763.63-8.75Q763.63-5.95 765.15-4.67 766.68-3.4 768.73-3.4L768.73-3.4ZM801.58-28.25Q806.68-28.25 809.15-25.55 811.63-22.85 811.63-16.65L811.63-16.65 811.63 0 806.93 0 806.93-16.65Q806.93-20.55 805.6-22.2 804.28-23.85 800.93-23.85L800.93-23.85Q797.03-23.85 793.13-20.45L793.13-20.45 793.13 0 788.43 0 788.43-27.65 793.13-27.65 793.13-24.7Q797.23-28.25 801.58-28.25L801.58-28.25ZM832.07 0.85Q825.62 0.8 822.15-3.15 818.67-7.1 818.67-13.85L818.67-13.85Q818.67-20.6 822.15-24.5 825.62-28.4 832.07-28.45L832.07-28.45Q834.32-28.45 835.95-28.13 837.57-27.8 839.42-27.05L839.42-27.05 839.42-22.5Q837.62-23.35 836-23.7 834.37-24.05 832.42-24.05L832.42-24.05Q827.77-24 825.67-21.28 823.57-18.55 823.57-13.9L823.57-13.9Q823.57-9.15 825.67-6.35 827.77-3.55 832.32-3.5L832.32-3.5Q835.87-3.5 840.07-5.65L840.07-5.65 841.57-1.55Q837.02 0.85 832.07 0.85L832.07 0.85ZM850.87-13.45Q850.97-8.85 853.17-6.1 855.37-3.35 860.17-3.35L860.17-3.35Q863.82-3.35 868.17-5.4L868.17-5.4 869.62-1.5Q865.07 0.85 859.77 0.85L859.77 0.85Q855.37 0.85 852.27-1 849.17-2.85 847.57-6.15 845.97-9.45 845.97-13.85L845.97-13.85Q845.97-18.5 847.65-21.78 849.32-25.05 852.17-26.75 855.02-28.45 858.57-28.45L858.57-28.45Q864.02-28.45 867.12-25.05 870.22-21.65 870.22-15.3L870.22-15.3 870.22-13.45 850.87-13.45ZM858.57-24.25Q852.37-24.25 851.17-17.4L851.17-17.4 865.27-17.4Q865.02-20.9 863.37-22.58 861.72-24.25 858.57-24.25L858.57-24.25ZM889.97-28.25L891.12-28.25 891.12-23.85 889.97-23.85Q885.67-23.85 881.62-20.4L881.62-20.4 881.62 0 876.92 0 876.92-27.65 881.62-27.65 881.62-24.55Q885.72-28.25 889.97-28.25L889.97-28.25Z" opacity="1" transform="matrix(1,0,0,1,0,0)" fill="#ffffff" class="slogan-text-1" data-fill-palette-color="secondary" id="text-1"></path></svg></g></svg></g></svg></g></svg></g><g transform="matrix(1,0,0,1,173.75043913330808,0)"><svg viewBox="0 0 48.019121733383805 42.30517589783241" height="42.30517589783241" width="48.019121733383805"><g><svg xmlns="http://www.w3.org/2000/svg" xmlns:xlink="http://www.w3.org/1999/xlink" version="1.1" x="0" y="0" viewBox="6.3 11.5 87.4 77" style="enable-background:new 0 0 100 100;" xml:space="preserve" height="42.30517589783241" width="48.019121733383805" class="icon-icon-0" data-fill-palette-color="accent" id="icon-0"><path d="M72.3 12.3L71.9 11.5H28.2L6.3 50 28.1 88.5H71.8L93.7 50zM33.3 25.3L9.9 47.7 28.5 14.9zM70.7 14.8L77.1 50.5 36.9 25.8zM35.5 27.3L76.5 52.5 35.5 75.8zM77 54.5L69.8 85.3 37.2 77.2zM33.5 75L9.9 50.5 33.5 27.8zM33.2 77.6L28.6 85.3 11.5 55.1zM35 78.6L66.4 86.5H30.2zM79.3 53.3L90.9 50.8 72.1 84zM90.7 48.9L79.3 51.4 73.4 18.3zM35 24.3L30 13.5H68.2z" fill="#ffffff" data-fill-palette-color="accent"></path></svg></g></svg></g><g></g></svg></g></svg></g></svg></g><defs></defs></svg><rect width="395.52" height="247.2" fill="none" stroke="none" visibility="hidden"></rect></g></svg></g></svg>